<?xml version="1.0" encoding="utf-8"?>

<!-- The icon can be used freely in both personal and commercial projects with no attribution required, but always appreciated. 
You may NOT sub-license, resell, rent, redistribute or otherwise transfer the icon without express written permission from iconmonstr.com -->

<!DOCTYPE svg PUBLIC "-//W3C//DTD SVG 1.1//EN" "http://www.w3.org/Graphics/SVG/1.1/DTD/svg11.dtd">
<svg version="1.1" xmlns="http://www.w3.org/2000/svg" xmlns:xlink="http://www.w3.org/1999/xlink" x="0px" y="0px"
	 width="512px" height="512px" viewBox="0 0 512 512" enable-background="new 0 0 512 512" xml:space="preserve">
<path id="radio-tower-8-icon" d="M135.355,264.338c-12.985-21.349-20.465-46.414-20.465-73.228C114.891,113.178,178.068,50,256,50
	c77.934,0.001,141.111,63.18,141.109,141.111c0,26.815-7.48,51.884-20.468,73.231c7.222-16.31,11.243-34.354,11.243-53.342
	c0-72.837-59.047-131.884-131.885-131.884s-131.887,59.045-131.887,131.882C124.113,229.985,128.132,248.027,135.355,264.338z
	 M179.205,210.999c0-42.411,34.383-76.793,76.795-76.792c42.412,0,76.794,34.382,76.794,76.794c0,9.832-1.85,19.23-5.217,27.872
	c9.137-13.664,14.467-30.09,14.467-47.762c0-47.521-38.523-86.045-86.044-86.045c-47.521-0.001-86.044,38.522-86.044,86.044
	c0,17.673,5.33,34.099,14.467,47.764C181.056,230.232,179.205,220.833,179.205,210.999z M318.176,462h45.64
	c-47.148-53.443-76.032-119.694-87.677-201.402c-1.031-7.239,1.586-14.556,6.983-19.487c7.749-7.081,12.735-17.168,13.069-28.489
	c0.656-22.197-16.805-40.724-39.002-41.38c-22.197-0.657-40.725,16.805-41.381,39.002c-0.361,12.18,4.734,23.252,13.073,30.875
	c5.403,4.94,8.012,12.236,6.979,19.484c-11.646,81.705-40.53,147.956-87.677,201.397h45.64
	c16.116-21.507,35.303-34.095,62.18-34.095h0.044C283.316,427.905,302.281,440.795,318.176,462z M234.991,392.482
	c8.206-17.957,15.215-36.819,21.009-56.658c5.794,19.839,12.803,38.701,21.009,56.658H234.991z"/>
</svg>
